<svg xmlns="http://www.w3.org/2000/svg" pointer-events="none" class="leaflet-zoom-animated" width="1140" height="600" viewBox="-95 -50 1140 600" style="transform: translate3d(-95px, -50px, 0px);"><g><path class="leaflet-interactive" stroke="black" stroke-opacity="1" stroke-width="2" stroke-linecap="round" stroke-linejoin="round" fill="#fff" fill-opacity="0.2" fill-rule="evenodd" d="M423 300L420 301L414 297L410 301L407 296L405 297L405 301L400 303L399 312L401 314L399 316L403 331L403 336L400 339L399 337L395 337L394 342L390 340L388 343L379 344L365 341L362 343L353 343L347 351L347 353L349 354L355 354L359 359L356 368L358 372L358 378L360 378L360 380L367 381L367 379L370 378L371 376L370 374L373 375L373 377L376 379L381 379L381 384L384 390L381 393L381 397L384 402L383 411L385 411L382 412L381 414L382 417L385 417L386 419L389 420L389 422L387 422L387 428L385 428L381 433L381 437L386 433L391 435L395 439L395 437L393 438L395 435L396 436L395 434L398 433L399 430L409 426L410 428L415 428L414 432L419 436L416 440L416 446L414 447L415 450L425 450L428 452L433 449L434 451L436 448L438 448L442 452L443 457L453 464L452 471L454 480L467 481L477 480L493 464L517 451L538 442L550 439L616 439L621 441L626 450L633 447L629 436L639 425L640 403L635 379L631 369L612 347L611 344L592 324L575 298L567 290L539 271L518 265L514 261L516 261L515 260L487 239L488 237L472 229L467 233L463 231L461 235L455 236L453 238L452 237L449 240L449 238L447 240L447 238L446 239L444 235L442 240L436 240L436 242L431 245L430 248L421 250L421 252L425 253L426 255L423 255L421 257L424 260L422 262L423 264L420 265L422 267L413 271L414 272L412 274L411 273L411 277L414 278L414 280L417 280L418 285L416 289L418 293L420 290L421 291L423 295L422 296L425 298L423 300zM634 198L568 180L549 173L546 174L539 170L536 171L512 156L499 154L493 150L489 143L491 143L482 132L465 120L456 121L435 132L414 155L420 156L458 198L479 217L485 207L490 205L495 206L505 210L524 223L542 232L559 236L594 252L604 254L620 253L636 244L639 240L640 235L638 224zM584 290L589 290L588 277L583 267L566 257L534 247L528 237L518 235L514 236L516 240L522 243L535 255L574 279L577 282L580 289L582 290zM703 257L704 257zM590 276L591 286L595 291L603 296L606 295L623 298L645 299L659 303L666 307L668 305L672 291L671 287L651 286L628 282L594 269L588 269L587 270L589 274zM545 249L547 249L547 247L544 244L537 239L532 239L534 244L542 249zM493 479L494 479zM626 319L627 330L630 336L640 335L644 327L644 318L633 314L627 316zM492 476L493 476zM611 311L611 316L615 323L617 325L621 324L622 314L612 310zM488 472L489 472z" id="上海市"/><path class="leaflet-interactive" stroke="#333" stroke-opacity="1" stroke-width="1" stroke-linecap="round" stroke-linejoin="round" stroke-dasharray="1,6" fill="#eee" fill-opacity="0.5" fill-rule="evenodd" d="M501 317L502 322L504 322L504 326L510 326L515 319L510 312L511 311L509 310L504 312L503 311L504 316L501 316z" id="黄浦区"/><path class="leaflet-interactive" stroke="#333" stroke-opacity="1" stroke-width="1" stroke-linecap="round" stroke-linejoin="round" stroke-dasharray="1,6" fill="#eee" fill-opacity="0.5" fill-rule="evenodd" d="M501 317L496 320L496 322L492 324L492 326L490 326L489 329L485 331L485 335L488 336L485 337L486 338L488 336L491 344L496 345L496 349L498 349L500 351L498 352L501 353L503 353L504 348L501 339L504 336L503 329L506 327L504 326L504 322L502 322L502 319z" id="徐汇区"/><path class="leaflet-interactive" stroke="#333" stroke-opacity="1" stroke-width="1" stroke-linecap="round" stroke-linejoin="round" stroke-dasharray="1,6" fill="#eee" fill-opacity="0.5" fill-rule="evenodd" d="M497 319L495 316L492 315L486 318L480 317L472 310L470 312L472 313L472 318L470 321L471 324L469 326L471 330L481 326L492 326L492 324L495 323L496 320z" id="长宁区"/><path class="leaflet-interactive" stroke="#333" stroke-opacity="1" stroke-width="1" stroke-linecap="round" stroke-linejoin="round" stroke-dasharray="1,6" fill="#eee" fill-opacity="0.5" fill-rule="evenodd" d="M501 317L504 316L503 311L508 311L507 307L502 300L504 288L496 287L491 296L493 302L494 301L497 303L500 308L493 315L497 319L500 318z" id="静安区"/><path class="leaflet-interactive" stroke="#333" stroke-opacity="1" stroke-width="1" stroke-linecap="round" stroke-linejoin="round" stroke-dasharray="1,6" fill="#eee" fill-opacity="0.5" fill-rule="evenodd" d="M475 312L477 316L478 315L479 317L486 318L494 314L500 308L496 302L494 301L491 304L486 300L487 297L485 295L477 296L477 292L467 297L469 297L470 301L472 302L478 302L476 304L478 306L481 305L480 309L478 309L475 312z" id="普陀区"/><path class="leaflet-interactive" stroke="#333" stroke-opacity="1" stroke-width="1" stroke-linecap="round" stroke-linejoin="round" stroke-dasharray="1,6" fill="#eee" fill-opacity="0.5" fill-rule="evenodd" d="M508 290L505 288L502 295L502 300L507 306L508 311L511 311L517 308L511 298L513 296L510 295L508 292z" id="虹口区"/><path class="leaflet-interactive" stroke="#333" stroke-opacity="1" stroke-width="1" stroke-linecap="round" stroke-linejoin="round" stroke-dasharray="1,6" fill="#eee" fill-opacity="0.5" fill-rule="evenodd" d="M516 309L523 308L530 301L528 285L519 279L517 281L514 279L510 284L512 286L511 290L508 290L510 295L513 296L511 300L514 302L516 308z" id="杨浦区"/><path class="leaflet-interactive" stroke="#333" stroke-opacity="1" stroke-width="1" stroke-linecap="round" stroke-linejoin="round" stroke-dasharray="1,6" fill="#eee" fill-opacity="0.5" fill-rule="evenodd" d="M476 390L493 385L496 382L506 379L510 380L511 384L516 381L518 383L517 384L522 386L523 385L525 387L530 384L531 375L526 378L528 370L526 368L523 370L523 368L525 366L524 365L527 363L526 362L530 361L531 359L526 359L525 357L528 355L529 356L526 349L524 351L521 348L516 349L515 347L512 349L512 347L510 348L510 346L508 346L506 348L507 350L505 349L503 353L498 352L499 349L496 349L496 345L491 344L488 336L486 338L485 337L487 336L485 335L484 331L486 329L489 329L490 326L481 326L471 330L469 326L471 324L470 321L472 314L470 312L469 314L465 315L461 314L458 312L456 309L457 308L453 308L449 305L445 311L447 311L450 314L449 315L453 324L461 324L471 341L470 342L474 348L474 354L476 353L479 359L477 363L475 363L476 364L472 366L471 365L469 371L469 379L471 379L467 385L467 388L474 391z" id="闵行区"/><path class="leaflet-interactive" stroke="#333" stroke-opacity="1" stroke-width="1" stroke-linecap="round" stroke-linejoin="round" stroke-dasharray="1,6" fill="#eee" fill-opacity="0.5" fill-rule="evenodd" d="M493 302L492 294L495 291L495 287L503 287L508 290L511 290L510 284L514 279L517 281L519 279L516 278L513 274L515 267L518 265L514 261L516 261L515 260L487 239L488 237L472 229L467 233L463 231L461 233L465 240L465 245L470 253L469 260L468 259L464 261L464 264L467 265L467 269L469 270L471 275L469 279L473 282L471 283L473 287L469 293L471 295L476 292L477 296L485 295L487 297L486 300L488 300L491 304z" id="宝山区"/><path class="leaflet-interactive" stroke="#333" stroke-opacity="1" stroke-width="1" stroke-linecap="round" stroke-linejoin="round" stroke-dasharray="1,6" fill="#eee" fill-opacity="0.5" fill-rule="evenodd" d="M423 300L422 303L424 302L427 304L427 306L431 308L436 307L436 305L438 305L439 307L442 304L444 304L456 308L456 310L460 314L465 315L469 314L472 310L476 312L478 309L480 309L481 306L478 306L476 304L478 302L470 301L469 297L467 297L470 295L469 294L473 287L471 284L472 282L469 278L471 276L470 272L467 269L467 265L464 264L464 261L468 259L469 260L470 254L467 249L467 246L465 246L466 242L464 241L465 240L462 234L459 236L455 236L453 238L452 237L449 240L449 238L447 240L447 238L446 239L444 235L442 240L436 240L436 242L431 245L430 248L421 250L421 252L425 253L426 255L423 255L421 257L424 260L422 262L423 264L420 265L422 267L413 271L414 272L412 274L411 273L411 277L414 278L414 280L417 280L418 285L416 289L418 293L420 290L421 291L423 295L422 296L425 298L423 300z" id="嘉定区"/><path class="leaflet-interactive" stroke="#333" stroke-opacity="1" stroke-width="1" stroke-linecap="round" stroke-linejoin="round" stroke-dasharray="1,6" fill="#eee" fill-opacity="0.5" fill-rule="evenodd" d="M530 384L542 383L543 386L561 386L567 389L576 398L579 399L579 402L584 404L584 414L581 428L588 438L616 439L621 441L626 450L633 447L629 436L639 425L640 403L635 379L631 369L612 347L611 344L592 324L575 298L567 290L539 271L518 265L515 267L513 274L516 278L525 282L528 285L530 301L523 308L514 309L510 312L515 318L512 325L503 329L504 335L501 341L504 345L503 350L507 350L506 348L508 346L510 346L510 348L512 347L512 349L514 347L520 348L524 351L526 349L528 350L529 355L525 356L525 359L528 358L530 359L530 361L528 361L524 365L525 366L523 367L523 369L526 368L528 370L526 377L527 378L528 376L529 377L531 375L529 380L530 383zM626 319L627 330L630 336L640 335L644 327L644 318L633 314L627 316zM611 311L611 316L615 323L617 325L621 324L622 314L612 310z" id="浦东新区"/><path class="leaflet-interactive" stroke="#333" stroke-opacity="1" stroke-width="1" stroke-linecap="round" stroke-linejoin="round" stroke-dasharray="1,6" fill="#eee" fill-opacity="0.5" fill-rule="evenodd" d="M383 398L383 411L385 411L382 412L381 414L382 417L388 419L389 422L387 422L387 428L385 428L381 433L381 437L386 433L391 435L395 439L395 437L393 438L395 435L396 436L395 434L398 433L399 430L409 426L410 428L415 428L414 432L419 436L416 440L416 446L414 447L415 450L425 450L428 452L433 449L434 451L436 448L438 448L442 452L443 457L453 464L452 471L454 480L477 480L493 464L507 457L496 438L491 439L490 437L488 437L487 433L486 435L482 433L482 421L476 416L474 410L461 411L459 408L458 415L454 415L454 413L452 413L451 411L447 411L445 406L441 404L437 408L428 409L424 407L424 410L419 408L420 412L417 414L412 413L415 407L409 406L406 410L408 411L408 413L398 412L394 414L394 412L393 413L390 411L392 402L384 398zM493 479L494 479zM492 476L493 476zM488 472L489 472z" id="金山区"/><path class="leaflet-interactive" stroke="#333" stroke-opacity="1" stroke-width="1" stroke-linecap="round" stroke-linejoin="round" stroke-dasharray="1,6" fill="#eee" fill-opacity="0.5" fill-rule="evenodd" d="M467 334L465 336L455 338L456 343L452 342L450 344L451 345L447 343L445 344L447 345L441 349L440 347L442 343L437 343L435 341L433 342L430 340L431 348L429 348L428 351L426 351L426 353L423 354L423 356L413 350L411 351L408 355L409 359L414 361L416 365L409 367L407 366L407 364L404 366L409 372L408 376L405 376L410 380L409 392L408 391L408 393L402 397L400 397L395 392L395 396L393 396L391 400L392 402L390 410L393 413L394 412L394 414L397 412L408 413L409 411L406 410L409 406L415 407L412 413L413 414L420 413L420 408L422 410L424 410L424 408L426 407L427 409L437 408L441 404L447 408L447 411L451 411L454 415L458 415L458 408L460 411L471 411L475 409L474 404L477 403L476 390L474 391L467 388L467 385L472 379L469 379L470 365L472 366L476 364L475 363L477 363L479 359L477 353L474 354L473 351L475 350L468 336z" id="松江区"/><path class="leaflet-interactive" stroke="#333" stroke-opacity="1" stroke-width="1" stroke-linecap="round" stroke-linejoin="round" stroke-dasharray="1,6" fill="#eee" fill-opacity="0.5" fill-rule="evenodd" d="M423 300L420 301L414 297L410 301L407 296L405 297L405 301L400 303L399 312L401 314L399 316L403 331L403 336L400 339L399 337L395 337L394 342L390 340L388 343L379 344L365 341L362 343L353 343L347 351L347 353L349 354L355 354L359 359L356 368L358 372L358 378L360 378L360 380L367 381L367 379L370 378L371 376L370 374L373 375L373 377L376 379L381 379L381 384L384 390L381 393L381 397L385 399L386 398L388 402L392 399L393 396L395 396L395 392L400 397L406 395L408 391L409 392L410 381L405 376L407 376L409 373L404 366L407 364L408 367L416 366L416 363L409 359L408 355L412 350L422 356L424 354L423 353L426 353L426 351L428 351L428 349L431 348L430 340L433 342L435 341L437 343L442 342L440 349L444 348L444 346L447 345L445 344L450 345L452 342L456 343L457 341L455 340L455 338L465 335L466 336L467 334L459 322L456 325L453 324L451 321L449 315L450 314L447 311L445 311L449 306L442 304L439 307L438 305L436 305L436 307L431 308L428 306L427 307L425 302L423 302z" id="青浦区"/><path class="leaflet-interactive" stroke="#333" stroke-opacity="1" stroke-width="1" stroke-linecap="round" stroke-linejoin="round" stroke-dasharray="1,6" fill="#eee" fill-opacity="0.5" fill-rule="evenodd" d="M530 384L526 385L526 387L523 385L519 385L516 381L512 384L509 379L506 379L503 381L499 381L493 385L476 390L477 402L474 405L474 410L476 416L482 420L482 433L484 435L486 435L486 433L488 437L490 437L490 439L496 438L507 457L526 447L550 439L588 438L581 428L582 419L584 415L584 405L581 402L579 402L580 401L575 396L573 396L567 389L561 386L543 386L542 383L532 384z" id="奉贤区"/><path class="leaflet-interactive" stroke="#333" stroke-opacity="1" stroke-width="1" stroke-linecap="round" stroke-linejoin="round" stroke-dasharray="1,6" fill="#eee" fill-opacity="0.5" fill-rule="evenodd" d="M634 198L568 180L549 173L546 174L539 170L536 171L512 156L499 154L493 150L489 143L491 143L482 132L465 120L456 121L435 132L414 155L420 156L458 198L479 217L485 207L490 205L495 206L505 210L524 223L542 232L559 236L594 252L604 254L620 253L636 244L639 240L640 235L638 224zM584 290L589 290L588 277L583 267L566 257L534 247L528 237L518 235L514 236L516 240L522 243L535 255L574 279L577 282L580 289L582 290zM703 257L704 257zM590 276L591 286L595 291L603 296L606 295L623 298L645 299L659 303L666 307L668 305L672 291L671 287L651 286L628 282L594 269L588 269L587 270L589 274zM545 249L547 249L547 247L544 244L537 239L532 239L534 244L542 249z" id="崇明区"/></g></svg>